Coordinates
version=1
nRows=4
nColumns=63
inDegrees=yes

Units are S.I. units (second, meters, Newtons, ...)
If the header above contains a line with 'inDegrees', this indicates whether rotational values are in degrees (yes) or radians (no).

endheader
time	pelvis_tilt	pelvis_list	pelvis_rotation	pelvis_tx	pelvis_ty	pelvis_tz	hip_flexion_r	hip_adduction_r	hip_rotation_r	knee_angle_r	knee_angle_r_beta	ankle_angle_r	subtalar_angle_r	mtp_angle_r	hip_flexion_l	hip_adduction_l	hip_rotation_l	knee_angle_l	knee_angle_l_beta	ankle_angle_l	subtalar_angle_l	mtp_angle_l	L5_S1_Flex_Ext	L5_S1_Lat_Bending	L5_S1_axial_rotation	L4_L5_Flex_Ext	L4_L5_Lat_Bending	L4_L5_axial_rotation	L3_L4_Flex_Ext	L3_L4_Lat_Bending	L3_L4_axial_rotation	L2_L3_Flex_Ext	L2_L3_Lat_Bending	L2_L3_axial_rotation	L1_L2_Flex_Ext	L1_L2_Lat_Bending	L1_L2_axial_rotation	L1_T12_Flex_Ext	L1_T12_Lat_Bending	L1_T12_axial_rotation	Abs_r3	Abs_r2	Abs_r1	Abs_t1	Abs_t2	neck_flexion	neck_bending	neck_rotation	arm_flex_r	arm_add_r	arm_rot_r	elbow_flex_r	pro_sup_r	wrist_flex_r	wrist_dev_r	arm_flex_l	arm_add_l	arm_rot_l	elbow_flex_l	pro_sup_l	wrist_flex_l	wrist_dev_l
      0.01666667	      0.03149947	      4.33024803	    -75.44503024	      0.03162683	      0.96918196	     -1.35246041	      0.04696862	      5.19361067	    -37.08274815	     16.94307591	      0.29571246	     17.44978726	     -8.07402490	      0.00000000	     28.71246175	     15.20191456	     28.39456379	     12.19857854	      0.21290536	    -21.94723845	    -18.33820166	     -0.00000000	      0.00190057	      0.38184989	     -1.44344601	      0.00352955	      0.50786035	     -1.53366138	      0.00312245	      0.92842981	     -1.53366138	      0.00217216	      0.92842981	     -1.26301526	      0.00176487	      0.77866829	     -1.17279988	      0.00108599	      0.59148547	     -1.08258451	      0.01357559	      4.31956228	     -8.02801366	      0.00000000	      0.00000000	      3.22109695	     -0.29951629	    -14.26163142	    -23.73580087	    -23.18367861	    -27.75567387	     55.85467135	     89.99559364	      0.00000000	      0.00000000	     -8.53577339	    -28.64648261	     25.98153146	     31.43412732	     89.99559364	      0.00000000	      0.00000000
      0.03333333	     -0.48540525	      3.40929823	    -77.97054301	      0.02657215	      0.96969212	     -1.34330134	     -1.47454144	      6.34036655	    -33.86050985	     16.50438916	      0.28805593	     16.76336525	     -8.25836013	      0.00000000	     28.54765748	     13.38413616	     23.44066251	     14.66694745	      0.25598652	    -20.16157169	    -16.19839417	      0.00000000	      0.00131594	      0.36090059	     -1.52645158	      0.00244383	      0.47999779	     -1.62185480	      0.00216196	      0.87749371	     -1.62185480	      0.00150399	      0.87749371	     -1.33564513	      0.00122198	      0.73594849	     -1.24024191	      0.00075193	      0.55903502	     -1.14483869	      0.00939962	      4.08257971	     -8.48966575	      0.00000000	      0.00000000	      1.53624327	     -0.04671504	     -8.98961871	    -22.51440035	    -24.98801997	    -24.36227903	     57.85073589	     89.99559364	      0.00000000	      0.00000000	     -9.00035992	    -28.88358091	     25.46304684	     30.08752141	     89.99559364	      0.00000000	      0.00000000
      0.05000000	     -1.09605821	      2.61041075	    -79.93821572	      0.02201845	      0.97032712	     -1.33425582	     -2.98055130	      7.51735550	    -30.91644987	     15.93685442	      0.27815058	     15.93527610	     -8.89323627	      0.00000000	     28.76504497	     11.14323763	     15.56008580	     17.36778090	      0.30312496	    -17.15346801	     -8.85379264	      0.00000000	      0.00026607	      0.34084191	     -1.54968103	      0.00049412	      0.45331975	     -1.64653609	      0.00043713	      0.82872303	     -1.64653609	      0.00030409	      0.82872303	     -1.35597090	      0.00024708	      0.69504483	     -1.25911583	      0.00015203	      0.52796413	     -1.16226077	      0.00190053	      3.85567191	     -8.61886097	      0.00000000	      0.00000000	      0.22578243	      0.08034655	     -5.19502387	    -21.64156254	    -26.56568475	    -21.70623374	     59.76493430	     89.99559364	      0.00000000	      0.00000000	     -8.89905136	    -29.13263584	     25.11785711	     28.66507734	     89.99559364	      0.00000000	      0.00000000
      0.06666667	     -1.66644515	      2.10099111	    -81.36683275	      0.01803729	      0.97107076	     -1.32470406	     -4.26667535	      8.48851615	    -28.64884460	     15.43773989	      0.26943939	     15.27654580	     -9.28782332	      0.00000000	     29.13585694	      8.76737892	      7.44337049	     19.94378194	      0.34808466	    -14.91630816	     -0.76312404	      0.00000000	     -0.00039367	      0.30017570	     -1.38174527	     -0.00073109	      0.39923368	     -1.46810434	     -0.00064676	      0.72984720	     -1.46810434	     -0.00044993	      0.72984720	     -1.20902711	     -0.00036556	      0.61211829	     -1.12266803	     -0.00022494	      0.46497216	     -1.03630895	     -0.00281195	      3.39564756	     -7.68485264	      0.00000000	      0.00000000	     -0.53144174	      0.13635592	     -4.08357186	    -21.70908653	    -27.43926534	    -21.05842244	     61.57415648	     89.99559364	      0.00000000	      0.00000000	     -7.83212271	    -29.49001379	     25.24142778	     27.40594240	     89.99559364	      0.00000000	      0.00000000
